name Walk2.mot
datacolumns 19
datarows 12
range 1.72000000 1.77500000
endheader

                time	   L_ground_force_vx	   L_ground_force_vy	   L_ground_force_vz	   L_ground_force_px	   L_ground_force_py	   L_ground_force_pz	   R_ground_force_vx	   R_ground_force_vy	   R_ground_force_vz	   R_ground_force_px	   R_ground_force_py	   R_ground_force_pz	   L_ground_torque_x	   L_ground_torque_y	   L_ground_torque_z	   R_ground_torque_x	   R_ground_torque_y	   R_ground_torque_z	
          1.72000000	          0.04605372	          0.13430355	         -0.00392493	         -0.00006933	          0.00000000	         -0.00007718	        -24.74693917	        455.43104067	        -23.97620439	          0.44426017	          0.00000000	          0.07965952	          0.00000000	         -0.00000888	          0.00000000	          0.00000000	         -0.05468442	          0.00000000	
          1.72500000	          0.03094682	          0.09095229	         -0.00349688	         -0.00005876	          0.00000000	         -0.00006693	        -23.39272935	        454.00756447	        -23.71994590	          0.44742457	          0.00000000	          0.07935119	          0.00000000	         -0.00000728	          0.00000000	          0.00000000	          0.06600379	          0.00000000	
          1.73000000	          0.01881154	          0.05595873	         -0.00294582	         -0.00004733	          0.00000000	         -0.00005506	        -22.02896463	        453.87793672	        -23.63733710	          0.45063376	          0.00000000	          0.07905285	          0.00000000	         -0.00000568	          0.00000000	          0.00000000	          0.18836868	          0.00000000	
          1.73500000	          0.00954165	          0.02909239	         -0.00235945	         -0.00003625	          0.00000000	         -0.00004309	        -20.62015133	        454.95050173	        -23.75080486	          0.45386349	          0.00000000	          0.07877043	          0.00000000	         -0.00000420	          0.00000000	          0.00000000	          0.31078667	          0.00000000	
          1.74000000	          0.00284243	          0.00956266	         -0.00179683	         -0.00002629	          0.00000000	         -0.00003201	        -19.14133261	        457.14640393	        -24.07530904	          0.45709162	          0.00000000	          0.07850722	          0.00000000	         -0.00000292	          0.00000000	          0.00000000	          0.43096386	          0.00000000	
          1.74500000	         -0.00167846	         -0.00371766	         -0.00129392	         -0.00001781	          0.00000000	         -0.00002237	        -17.58287756	        460.40894784	        -24.61587134	          0.46029957	          0.00000000	          0.07826268	          0.00000000	         -0.00000187	          0.00000000	          0.00000000	          0.54617091	          0.00000000	
          1.75000000	         -0.00444487	         -0.01194006	         -0.00086908	         -0.00001097	          0.00000000	         -0.00001442	        -15.95244049	        464.70735134	        -25.36689949	          0.46347270	          0.00000000	          0.07803205	          0.00000000	         -0.00000105	          0.00000000	          0.00000000	          0.65331779	          0.00000000	
          1.75500000	         -0.00586738	         -0.01626860	         -0.00052790	         -0.00000572	          0.00000000	         -0.00000818	        -14.27200573	        470.03586887	        -26.31252136	          0.46659977	          0.00000000	          0.07780801	          0.00000000	         -0.00000044	          0.00000000	          0.00000000	          0.74931186	          0.00000000	
          1.76000000	         -0.00631557	         -0.01775777	         -0.00026736	         -0.00000190	          0.00000000	         -0.00000354	        -12.57193791	        476.40767297	        -27.42719959	          0.46967358	          0.00000000	          0.07758213	          0.00000000	         -0.00000001	          0.00000000	          0.00000000	          0.83152518	          0.00000000	
          1.76500000	         -0.00610350	         -0.01730831	         -0.00007914	          0.00000070	          0.00000000	         -0.00000028	        -10.88656567	        483.84804249	        -28.67710380	          0.47269174	          0.00000000	          0.07734508	          0.00000000	          0.00000026	          0.00000000	          0.00000000	          0.89777808	          0.00000000	
          1.77000000	         -0.00548479	         -0.01565121	          0.00004783	          0.00000232	          0.00000000	          0.00000184	         -9.25229689	        492.38472953	        -30.02167772	          0.47565421	          0.00000000	          0.07708746	          0.00000000	          0.00000042	          0.00000000	          0.00000000	          0.94658024	          0.00000000	
          1.77500000	         -0.00465424	         -0.01335072	          0.00012546	          0.00000317	          0.00000000	          0.00000305	         -7.70558935	        502.03604274	        -31.41551454	          0.47856149	          0.00000000	          0.07680059	          0.00000000	          0.00000048	          0.00000000	          0.00000000	          0.97749575	          0.00000000	
